<svg width="201" height="119" viewBox="0 0 201 119" fill="none" xmlns="http://www.w3.org/2000/svg">
<path d="M114.014 0.905052L133.318 20.3801L148.607 35.804C148.607 35.804 151.285 37.9296 149.183 40.0318C147.08 42.134 114.152 74.9229 114.152 74.9229L92.9478 74.9396C91.668 75.1118 89.7922 74.0865 91.3339 72.341C93.1612 70.5129 125.221 38.706 125.221 38.706L91.8922 5.00157C90.9926 4.40864 90.8252 1.03651 93.7924 0.837303L114.014 0.905052Z" fill="#181213"/>
<path d="M30.344 112.828L30.372 97.1068L34.2743 112.828H38.1491L42.1075 97.1068V112.828H45.8427V92.8696H39.766L36.2537 106.473L32.6579 92.8696H26.6086V112.828H30.344ZM49.3829 103.518C49.3829 105.776 49.5224 107.448 49.7734 108.591C49.9684 109.372 50.331 110.097 50.9164 110.821C51.4735 111.518 52.2539 112.076 53.2297 112.522C54.2053 112.968 55.6551 113.191 57.5505 113.191C59.1115 113.191 60.3938 112.996 61.3693 112.578C62.3449 112.187 63.1253 111.63 63.7108 110.961C64.2962 110.264 64.7143 109.428 64.9093 108.452C65.1327 107.448 65.2437 105.776 65.2437 103.351V92.8696H61.202V103.908C61.202 105.497 61.1464 106.64 61.0349 107.309C60.9234 107.978 60.561 108.563 59.9755 109.037C59.418 109.511 58.554 109.734 57.4386 109.734C56.3241 109.734 55.4321 109.483 54.7908 108.981C54.1497 108.508 53.7318 107.839 53.5643 107.03C53.4808 106.528 53.4248 105.413 53.4248 103.685V92.8696H49.3829V103.518ZM69.012 112.828H76.5662C78.0715 112.828 79.242 112.689 80.134 112.41C81.3328 112.02 82.2804 111.49 82.9773 110.821C83.8972 109.901 84.5942 108.731 85.0957 107.281C85.5141 106.11 85.7092 104.689 85.7092 103.044C85.7092 101.177 85.4861 99.5877 85.0681 98.3333C84.6221 97.0509 83.9812 95.9639 83.1448 95.0996C82.3084 94.2076 81.3328 93.5945 80.162 93.26C79.27 93.0091 78.0156 92.8696 76.3711 92.8696H69.012V112.828ZM74.8657 96.2425C76.4825 96.2425 77.5976 96.2984 78.155 96.4379C78.9074 96.6049 79.5209 96.9115 80.0228 97.3853C80.4964 97.8313 80.8868 98.4728 81.1379 99.3088C81.4164 100.117 81.5558 101.316 81.5558 102.849C81.5558 104.41 81.4164 105.609 81.1379 106.501C80.8868 107.392 80.5244 108.034 80.1064 108.424C79.6604 108.814 79.1306 109.093 78.4895 109.26C77.9876 109.4 77.1795 109.455 76.0641 109.455H73.0537V96.2425H74.8657ZM98.62 92.8696H94.3552L86.6057 112.828H90.8705L92.5433 108.285H100.543L102.271 112.828H106.62L98.62 92.8696ZM93.7697 104.912L96.4736 97.5248L99.2331 104.912H93.7697ZM112.005 112.828V99.6992L120.089 112.828H124.13V92.8696H120.395V106.249L112.172 92.8696H108.27V112.828H112.005ZM134.56 118.375C136.205 118.375 137.459 118.041 138.352 117.344C138.993 116.842 139.327 116.201 139.327 115.393C139.327 114.696 139.021 114.083 138.435 113.581C138.184 113.358 137.878 113.191 137.487 113.107C139.104 112.94 140.47 112.41 141.585 111.574C142.979 110.487 143.982 108.87 144.567 106.668L140.665 105.469C140.331 106.919 139.773 108.006 138.993 108.675C138.24 109.372 137.32 109.706 136.233 109.706C134.783 109.706 133.613 109.177 132.693 108.089C131.773 107.03 131.327 105.246 131.327 102.71C131.327 100.34 131.801 98.6119 132.72 97.5528C133.64 96.4935 134.839 95.9639 136.316 95.9639C137.376 95.9639 138.296 96.2704 139.049 96.8559C139.801 97.4689 140.303 98.2773 140.526 99.3088L144.512 98.3613C144.066 96.7724 143.369 95.5455 142.477 94.6815C140.944 93.2321 138.965 92.5072 136.512 92.5072C133.724 92.5072 131.466 93.4271 129.738 95.2669C128.038 97.1068 127.174 99.6992 127.174 103.016C127.174 106.166 128.038 108.619 129.738 110.431C131.02 111.797 132.553 112.661 134.365 112.996C134.086 113.024 133.808 113.107 133.557 113.191L133.222 114.557C133.808 114.361 134.421 114.278 135.006 114.278C135.592 114.278 136.038 114.389 136.316 114.613C136.595 114.835 136.735 115.114 136.735 115.421C136.735 115.755 136.595 116.062 136.289 116.257C135.899 116.563 135.285 116.703 134.477 116.703C133.696 116.703 132.832 116.647 131.912 116.563V118.152C132.498 118.292 133.39 118.375 134.56 118.375ZM157.506 92.8696H153.241L145.492 112.828H149.757L151.429 108.285H159.429L161.158 112.828H165.506L157.506 92.8696ZM152.656 104.912L155.359 97.5248L158.119 104.912H152.656ZM168.522 111.435C169.86 112.605 171.811 113.191 174.32 113.191C176.076 113.191 177.497 112.94 178.668 112.466C179.839 111.964 180.731 111.239 181.372 110.236C182.013 109.232 182.32 108.173 182.32 107.03C182.32 105.748 182.069 104.689 181.539 103.853C181.01 102.989 180.257 102.32 179.337 101.818C178.39 101.316 176.94 100.842 174.988 100.368C173.037 99.9223 171.811 99.4763 171.281 99.0303C170.891 98.6953 170.696 98.3053 170.696 97.8313C170.696 97.3019 170.919 96.8839 171.337 96.5769C171.978 96.1033 172.898 95.8524 174.069 95.8524C175.184 95.8524 176.02 96.0755 176.605 96.5213C177.163 96.9673 177.525 97.7199 177.693 98.7513L181.735 98.6119C181.679 96.7724 181.01 95.2669 179.755 94.1796C178.473 93.0651 176.605 92.5072 174.097 92.5072C172.591 92.5072 171.282 92.7301 170.194 93.2041C169.107 93.678 168.299 94.3471 167.713 95.2391C167.128 96.1313 166.849 97.0789 166.849 98.0824C166.849 99.6712 167.462 101.009 168.689 102.124C169.553 102.905 171.058 103.574 173.205 104.103C174.877 104.521 175.964 104.8 176.41 104.967C177.107 105.219 177.581 105.497 177.86 105.832C178.139 106.166 178.278 106.584 178.278 107.03C178.278 107.783 177.943 108.424 177.302 108.954C176.633 109.511 175.658 109.79 174.375 109.79C173.149 109.79 172.173 109.483 171.449 108.87C170.752 108.257 170.25 107.281 170.027 105.971L166.097 106.361C166.347 108.591 167.156 110.292 168.522 111.435Z" fill="#181213"/>
<path d="M72.8297 45.486L62.6105 17.9632L52.5929 45.486H72.8297ZM100.521 74.9464L84.1115 74.9316L77.6372 57.98H47.9895L41.8674 74.8284H28.0676C27.0645 74.8284 26.3748 73.8212 26.7387 72.8853L54.4476 1.74667C54.7016 1.09093 55.333 0.659348 56.0353 0.659348H69.6067C70.2701 0.659348 70.8669 1.06374 71.1137 1.68055L100.521 74.9464Z" fill="#181213"/>
<path d="M161.242 0.905075L141.938 20.3801L126.649 35.804C126.649 35.804 123.97 37.9296 126.073 40.0319C128.176 42.134 161.104 74.9229 161.104 74.9229L182.264 74.9415C183.544 75.1137 185.464 74.0865 183.922 72.3411C182.095 70.5129 150.034 38.706 150.034 38.706L183.364 5.00159C184.263 4.40866 184.431 1.03652 181.463 0.837326L161.242 0.905075Z" fill="#EC1B27"/>
<path fill-rule="evenodd" clip-rule="evenodd" d="M31.6934 37.7324H0.457764V41.2686H31.6934V37.7324Z" fill="#181213"/>
<path fill-rule="evenodd" clip-rule="evenodd" d="M200.542 37.7324H176.695V41.2686H200.542V37.7324Z" fill="#231F20"/>
</svg>
